<svg width="193" height="170" viewBox="0 0 193 170" fill="none" xmlns="http://www.w3.org/2000/svg">
<g clip-path="url(#clip0)">
<path d="M50.0344 163.659C48.3564 162.276 46.9355 160.61 45.938 158.617C42.2594 151.265 46.8596 142.436 42.676 135.192C36.3095 124.165 22.4714 123.493 12.7704 116.97C2.29275 109.925 -1.41531 95.8324 0.472124 83.7624C4.50174 57.9768 28.4031 37.2742 48.4312 23.1483C49.1615 22.6338 49.894 22.1238 50.6311 21.6195C69.1499 8.94992 91.9609 -3.89982 116.161 1.10952C120.662 2.04112 125.88 2.96705 129.218 6.11092C136.438 12.9121 128.798 22.0184 131.116 29.7387C134.832 42.1192 148.572 38.8541 157.756 37.9406C170.04 36.7189 182.409 37.5337 188.877 50.1273C198.337 68.5497 187.431 90.0898 176.134 105.645C165.851 119.804 152.895 131.279 139.5 142.326C118.894 159.319 90.9068 173.704 63.2577 169.147C58.8069 168.413 53.781 166.745 50.0344 163.659Z" fill="#F7FAFC"/>
<path d="M41.3774 145.816C41.1181 108.131 40.1455 70.4513 38.463 32.8043C75.1768 38.9028 112.869 29.7602 149.98 32.5459C149.005 32.0314 147.908 109.018 148.66 144.708L41.3774 145.816Z" fill="white"/>
<path d="M149.031 37.5099C148.853 41.3213 148.748 45.1372 148.652 48.952C148.514 54.3852 148.41 59.8196 148.321 65.2539C148.217 71.6549 148.136 78.0571 148.073 84.4593C148.007 91.2786 147.959 98.0979 147.935 104.918C147.911 111.492 147.909 118.065 147.939 124.637C147.942 125.413 147.947 126.19 147.95 126.966C147.952 127.414 148.941 127.222 148.938 126.86C148.902 120.356 148.899 113.852 148.916 107.348C148.934 100.522 148.976 93.6971 149.038 86.8711C149.097 80.3873 149.174 73.9046 149.275 67.4219C149.361 61.8301 149.463 56.2382 149.596 50.6475C149.694 46.6004 149.8 42.5532 149.971 38.5095C149.987 38.14 150.003 37.7717 150.02 37.4022C150.04 36.9602 149.048 37.1416 149.031 37.5099Z" fill="#4A5568"/>
<path d="M41.7125 129.316C41.5676 117.64 41.3548 105.967 41.074 94.2935C40.7943 82.67 40.4467 71.0488 40.0312 59.4299C39.7968 52.8803 39.5409 46.3319 39.2647 39.7835C39.25 39.4299 38.2626 39.6373 38.2808 40.0476C38.771 51.6382 39.1945 63.2311 39.55 74.8262C39.9066 86.4712 40.1965 98.1173 40.4173 109.766C40.5418 116.319 40.6437 122.872 40.7252 129.425C40.7309 129.869 41.7171 129.673 41.7125 129.316Z" fill="#4A5568"/>
<path d="M73.9008 145.594C73.5159 133.739 73.8963 119.765 73.5114 107.91C80.2912 108.288 88.082 105.696 94.7577 104.454C102.068 103.092 109.574 102.783 116.972 103.538C117.497 103.591 118.059 103.666 118.453 104.019C118.986 104.498 119.026 105.306 119.026 106.022C119.037 118.438 119.049 133.077 119.061 145.492L73.9008 145.594Z" fill="#EDF2F7"/>
<path d="M95.6239 111.392C95.8299 119.746 95.685 128.104 95.736 136.459C95.7507 138.779 95.7801 141.099 95.8379 143.418C95.8503 143.929 96.8455 143.776 96.8342 143.341C96.6282 134.987 96.7731 126.628 96.7221 118.274C96.7074 115.954 96.678 113.634 96.6202 111.315C96.6078 110.804 95.6126 110.957 95.6239 111.392Z" fill="#4A5568"/>
<path d="M73.2906 110.034C73.4989 119.071 73.3574 128.111 73.4095 137.15C73.4242 139.692 73.4548 142.234 73.5137 144.776C73.525 145.287 74.5202 145.134 74.5101 144.699C74.3017 135.662 74.4433 126.623 74.3912 117.583C74.3764 115.041 74.3459 112.499 74.287 109.957C74.2757 109.446 73.2804 109.598 73.2906 110.034Z" fill="#4A5568"/>
<path d="M118.451 110.034C118.659 119.071 118.517 128.111 118.569 137.15C118.584 139.692 118.615 142.234 118.674 144.776C118.685 145.287 119.68 145.134 119.67 144.699C119.462 135.662 119.603 126.623 119.551 117.583C119.536 115.041 119.506 112.499 119.447 109.957C119.435 109.446 118.44 109.598 118.451 110.034Z" fill="#4A5568"/>
<path d="M67.002 108.111C86.5511 107.965 106.099 107.819 125.648 107.673C126.366 100.511 126.464 93.2869 125.944 86.1072C108.96 86.1684 91.9779 86.2307 74.9944 86.2919C68.7921 86.3146 66.9137 85.4226 66.9409 92.115C66.9466 93.492 67.0111 108.111 67.002 108.111Z" fill="white"/>
<path d="M66.9591 108.471C74.5824 108.415 82.2057 108.358 89.829 108.3C97.4523 108.243 105.076 108.187 112.699 108.129C117.001 108.097 121.304 108.064 125.605 108.033C125.816 108.031 126.124 107.867 126.148 107.635C126.862 100.436 126.954 93.1893 126.436 85.9745C126.423 85.7796 126.124 85.7456 125.988 85.7456C117.949 85.7751 109.91 85.8045 101.873 85.8329C93.8337 85.8623 85.7949 85.8918 77.7572 85.9201C76.1471 85.9258 74.5382 85.9349 72.9282 85.9122C71.9839 85.8986 71.0272 85.8669 70.0874 85.9734C68.628 86.1389 67.3837 86.7633 66.8821 88.2231C66.3567 89.7519 66.4416 91.4327 66.4484 93.0284C66.4552 94.6729 66.462 96.3162 66.47 97.9607C66.4835 101.288 66.4824 104.617 66.5073 107.944C66.5073 108.01 66.5141 108.081 66.5062 108.147C66.4518 108.651 67.455 108.518 67.5037 108.072C67.5954 107.222 67.5003 106.311 67.4969 105.458C67.4901 103.558 67.4822 101.66 67.4742 99.7604C67.4663 97.8927 67.4584 96.0249 67.4505 94.1572C67.4448 92.7689 67.3893 91.3647 67.5184 89.982C67.6475 88.6016 67.9577 87.1249 69.4806 86.7781C70.2731 86.5979 71.1189 86.6194 71.9262 86.6228C73.1999 86.6285 74.4726 86.6523 75.7452 86.6477C83.6323 86.6194 91.5206 86.5899 99.4088 86.5616C107.259 86.5333 115.108 86.5049 122.959 86.4766C123.941 86.4732 124.921 86.4698 125.903 86.4664C125.754 86.3905 125.604 86.3134 125.455 86.2375C125.968 93.3877 125.861 100.575 125.154 107.71C125.335 107.577 125.515 107.444 125.696 107.312C118.073 107.368 110.449 107.425 102.826 107.483C95.2026 107.541 87.5793 107.596 79.956 107.654C75.6535 107.686 71.351 107.719 67.0497 107.75C66.4847 107.755 66.2899 108.477 66.9591 108.471Z" fill="#4A5568"/>
<path d="M61.0828 59.9384C61.633 55.4538 62.9272 51.0871 65.9683 47.7665C69.2733 44.1579 74.5631 43.2513 78.9697 45.2833C85.8186 48.4419 86.1503 57.4462 86.7425 63.9062C86.8591 65.1767 88.3242 80.3815 87.4513 80.4382C78.8542 81.0048 69.6447 80.5583 60.7827 81.0672C60.4295 76.867 60.6616 72.4708 60.6763 68.2537C60.6854 65.5858 60.7397 62.7389 61.0828 59.9384Z" fill="url(#paint0_linear)"/>
<path d="M61.5809 59.8989C62.0451 56.194 63.0053 52.4245 65.2109 49.3487C67.2715 46.4734 70.307 44.634 73.8905 44.5751C77.0426 44.5229 80.1733 45.8807 82.166 48.3423C83.9685 50.5693 84.8256 53.3992 85.3442 56.1747C86.0982 60.2139 86.3054 64.388 86.6485 68.4827C86.8398 70.7698 87.0165 73.0591 87.1342 75.3519C87.184 76.3265 87.2259 77.3035 87.2304 78.2804C87.2327 78.8879 87.2542 79.5259 87.1342 80.1255C87.1172 80.2082 87.0787 80.2626 87.0901 80.2807C87.1093 80.3102 87.0934 80.2683 87.1014 80.266C87.2316 80.2456 87.7694 80.1243 87.2871 80.0971C87.1501 80.0892 87.0029 80.1153 86.867 80.1232C85.8072 80.1867 84.7475 80.2354 83.6866 80.2739C81.5285 80.351 79.3694 80.3839 77.2091 80.402C72.8341 80.4394 68.457 80.4167 64.0843 80.5663C62.9985 80.6037 61.9127 80.6525 60.828 80.7137C60.9774 80.7885 61.1258 80.8621 61.2752 80.9369C60.9876 77.4236 61.0986 73.8944 61.1529 70.3743C61.2062 66.8734 61.1631 63.3793 61.5809 59.8989C61.6398 59.4036 60.6366 59.5396 60.5846 59.9771C60.1588 63.5289 60.2087 67.0967 60.1532 70.6667C60.0977 74.1777 60.0049 77.6933 60.2913 81.1976C60.3072 81.3857 60.6027 81.4277 60.7385 81.4209C65.3569 81.1602 69.9843 81.1511 74.6095 81.1262C76.926 81.1137 79.2437 81.0979 81.5591 81.0423C82.6642 81.0163 83.7692 80.98 84.8743 80.9313C85.4381 80.9063 86.0031 80.8769 86.567 80.8451C86.918 80.8247 87.3663 80.8757 87.6947 80.7171C88.1498 80.4972 88.1668 79.9147 88.1974 79.4749C88.2551 78.6476 88.2302 77.8123 88.2042 76.985C88.1306 74.6118 87.9551 72.2409 87.7694 69.8745C87.6222 68.0056 87.458 66.139 87.2837 64.2724C87.0595 61.8675 86.8964 59.4546 86.5262 57.0667C86.0677 54.1053 85.2966 51.0623 83.562 48.5701C81.7493 45.9657 78.8904 44.3575 75.7587 43.9585C72.2941 43.5177 68.7185 44.6238 66.1631 47.0163C63.3778 49.6241 61.8527 53.3459 61.0748 57.0157C60.8665 57.9949 60.7114 58.9843 60.5868 59.9782C60.5234 60.4723 61.5266 60.3375 61.5809 59.8989Z" fill="#4A5568"/>
<path d="M72.858 48.1881C73.1434 55.9764 73.4287 63.7635 73.714 71.5518C73.7955 73.772 73.877 75.991 73.9586 78.2112C73.9699 78.5082 74.956 78.3178 74.9424 77.9472C74.6571 70.1589 74.3718 62.3717 74.0865 54.5835C74.005 52.3633 73.9235 50.1442 73.8419 47.924C73.8317 47.6271 72.8445 47.8175 72.858 48.1881Z" fill="#4A5568"/>
<path d="M65.1338 64.4016C64.8474 64.4322 64.5598 64.4639 64.2733 64.4945C64.0401 64.5194 63.1943 64.9036 63.8374 64.8526C70.6761 64.3188 77.5442 64.2463 84.392 64.6259C84.5913 64.6373 84.9332 64.5727 85.0883 64.439C85.2151 64.3302 85.2525 64.2667 85.0385 64.2542C78.1194 63.8712 71.1822 63.9539 64.2733 64.4934C64.1284 64.6123 63.9823 64.7325 63.8374 64.8515C64.1239 64.8209 64.4115 64.7891 64.6979 64.7585C64.8462 64.7427 65.2889 64.686 65.3591 64.5308C65.4282 64.3766 65.3003 64.3834 65.1338 64.4016Z" fill="#4A5568"/>
<path d="M129.878 59.7018C129.728 58.6943 129.553 57.6969 129.354 56.7121C128.178 50.8981 125.186 45.1759 118.878 43.9553C113.273 42.8707 108.597 45.9465 106.455 51.0749C104.267 56.3143 104.332 62.3594 103.932 67.9298C103.869 68.8149 102.895 80.3375 103.655 80.3828C112.255 80.8906 121.462 80.3817 130.327 80.8294C130.855 73.9806 130.913 66.6117 129.878 59.7018Z" fill="url(#paint1_linear)"/>
<path d="M130.37 59.5702C129.453 53.5216 127.381 46.5074 121.007 44.209C118.16 43.1822 114.925 43.2388 112.161 44.4991C109.427 45.7469 107.355 48.0476 106.128 50.7676C104.524 54.324 104.067 58.2986 103.799 62.1508C103.627 64.6214 103.508 67.0944 103.321 69.5639C103.16 71.6832 103.016 73.8049 102.93 75.9287C102.891 76.9125 102.858 77.8985 102.879 78.8833C102.889 79.3129 102.809 80.0914 103.084 80.4643C103.33 80.7964 104.05 80.6649 104.4 80.683C105.426 80.7352 106.453 80.7726 107.48 80.8009C109.64 80.8599 111.8 80.8757 113.962 80.8791C118.264 80.8848 122.568 80.836 126.869 80.9528C127.955 80.9823 129.041 81.0231 130.125 81.0775C130.27 81.0843 130.798 80.9766 130.815 80.7567C131.355 73.7085 131.408 66.5776 130.37 59.5702C130.328 59.288 129.337 59.5078 129.386 59.8342C130.417 66.8008 130.372 73.891 129.837 80.8995C130.066 80.793 130.296 80.6853 130.526 80.5788C122.379 80.1753 114.219 80.5686 106.07 80.2422C105.611 80.2241 105.154 80.2025 104.695 80.1798C104.536 80.1719 104.193 80.2116 104.043 80.1504C104.023 80.1425 104.069 80.1833 104.038 80.1493C103.954 80.0586 103.939 79.756 103.923 79.6211C103.835 78.8822 103.853 78.1263 103.864 77.3851C103.898 75.2589 104.036 73.1339 104.185 71.0135C104.299 69.3747 104.438 67.737 104.536 66.0959C104.754 62.374 104.884 58.617 105.705 54.9677C106.423 51.7785 107.673 48.5712 110.195 46.3759C112.459 44.405 115.372 43.6446 118.321 44.1534C124.565 45.2301 127.702 51.145 128.862 56.8445C129.063 57.8362 129.234 58.8335 129.386 59.8342C129.429 60.1164 130.42 59.8954 130.37 59.5702Z" fill="#4A5568"/>
<path d="M116.648 46.0075C116.924 54.5143 116.884 63.0313 116.521 71.5358C116.419 73.9306 116.292 76.323 116.14 78.7144C116.113 79.1484 117.104 78.9683 117.128 78.6045C117.672 70.0466 117.897 61.4696 117.794 52.8948C117.766 50.5102 117.711 48.1257 117.633 45.7423C117.621 45.3955 116.635 45.5995 116.648 46.0075Z" fill="#4A5568"/>
<path d="M109.102 63.3284C114.27 62.5951 119.502 62.5044 124.693 63.0529C125.093 63.0949 125.729 62.5339 125.068 62.4636C119.798 61.9071 114.475 62.0046 109.228 62.7492C109.061 62.773 108.682 62.8761 108.672 63.096C108.661 63.317 108.933 63.3522 109.102 63.3284Z" fill="#4A5568"/>
<path d="M26.4671 107.427C23.7724 104.692 22.7647 100.334 24.2264 96.781C25.6881 93.2291 29.6588 90.8128 33.4518 91.392C29.0723 90.126 24.531 87.1318 24.0373 82.595C23.7599 80.045 24.9193 77.4282 26.8724 75.7678C28.8255 74.1075 31.4964 73.3867 34.0462 73.6372C31.7704 70.1964 31.3402 65.6052 32.9378 61.8018C34.5353 57.9972 38.1143 55.0936 42.1632 54.315C45.2508 53.7211 48.7765 54.4736 50.7545 56.9194C52.4053 58.9605 52.7155 61.7859 52.5072 64.4039C52.1019 69.4948 49.9427 74.4282 46.4804 78.1784C48.1447 77.0746 50.5088 77.4656 52.0362 78.753C53.5636 80.0405 54.3414 82.042 54.5724 84.0276C54.9008 86.8552 53.9157 90.1498 51.3127 91.2968C54.0584 92.0674 55.6299 94.8804 56.8471 97.461C57.7687 99.416 58.6677 101.419 58.996 103.556C59.3244 105.693 59.0187 108.013 57.7166 109.739C55.5529 112.607 51.3773 113.028 47.847 112.379C43.9453 111.662 40.4501 110.184 36.4613 110.543C32.7804 110.875 29.164 110.164 26.4671 107.427Z" fill="url(#paint2_linear)"/>
<path d="M134.42 145.58C132.387 144.802 131.48 142.41 130.622 140.409C129.717 138.298 130.732 135.836 132.157 134.036C133.834 131.919 136.219 130.228 138.904 129.958C141.59 129.688 144.518 131.119 145.47 133.647C145.094 130.925 147.7 128.209 150.433 128.477C153.166 128.744 155.197 131.913 154.302 134.511C155.269 132.285 157.878 130.814 160.228 131.413C162.577 132.013 164.184 134.826 163.269 137.073C164.185 135.901 166 135.743 167.332 136.401C168.665 137.06 169.578 138.35 170.218 139.693C171.136 141.61 171.378 144.315 169.59 145.461L134.42 145.58Z" fill="url(#paint3_linear)"/>
<path d="M30.9518 137.948C30.1683 134.924 31.3096 131.338 34.0179 129.788C36.7262 128.238 40.7852 129.415 41.802 132.368C41.4261 131.062 42.6398 129.844 43.8468 129.22C45.356 128.442 47.2254 128.057 48.729 128.845C50.2337 129.632 50.9244 131.926 49.6982 133.1C51.6501 131.991 54.4354 132.421 55.7296 134.256C57.0237 136.091 56.2866 139.101 54.1829 139.884C55.2529 139.177 56.7157 140.58 56.5006 141.846C56.2855 143.11 55.0966 143.966 53.9293 144.495C52.805 145.005 51.6048 145.349 50.3809 145.511C48.267 145.792 46.1554 145.518 44.0528 145.289C42.0341 145.069 39.696 145.379 37.7497 145.01C34.6168 144.415 31.7262 140.933 30.9518 137.948Z" fill="url(#paint4_linear)"/>
<path d="M36.0289 26.6831C36.1817 30.414 36.3334 34.1461 36.4863 37.877C36.5101 38.4652 145.808 37.2729 151.591 37.0882C151.476 33.287 151.687 29.6388 152.214 25.8716C139.383 25.2732 36.0289 26.6831 36.0289 26.6831Z" fill="#EDF2F7"/>
<path d="M35.5294 26.7182C35.6415 29.4597 35.7536 32.2012 35.8657 34.9428C35.8917 35.5899 35.9189 36.237 35.9449 36.8842C35.9563 37.1675 35.8442 37.8554 36.0378 38.1014C36.125 38.2113 36.2439 38.2385 36.3718 38.2668C36.7579 38.3518 37.1927 38.3246 37.5856 38.336C39.833 38.4017 42.0828 38.4006 44.3314 38.4062C48.0881 38.4164 51.8449 38.4062 55.6005 38.3926C60.4283 38.3745 65.2562 38.3473 70.0851 38.3144C75.5538 38.2782 81.0214 38.2362 86.49 38.1898C92.1761 38.1422 97.8622 38.09 103.548 38.0356C108.969 37.9835 114.39 37.928 119.812 37.8702C124.56 37.8192 129.309 37.7659 134.056 37.7092C137.656 37.6662 141.255 37.622 144.854 37.5721C146.881 37.5438 148.907 37.5188 150.933 37.4758C151.139 37.4712 151.345 37.4667 151.551 37.4599C151.744 37.4542 152.098 37.2933 152.092 37.0542C151.984 33.3017 152.2 29.556 152.714 25.8376C152.739 25.6574 152.548 25.5134 152.382 25.5055C150.305 25.4092 148.223 25.399 146.143 25.3808C142.726 25.3514 139.307 25.3502 135.89 25.3548C131.465 25.3604 127.039 25.3808 122.613 25.4058C117.54 25.4352 112.468 25.4726 107.396 25.5146C102.059 25.5588 96.7243 25.6086 91.3892 25.6619C86.1107 25.714 80.8311 25.7707 75.5527 25.8285C70.7124 25.8818 65.8732 25.9384 61.0329 25.9962C56.9943 26.045 52.9556 26.0937 48.9169 26.1447C46.0411 26.181 43.1663 26.2184 40.2905 26.2558C38.9442 26.2739 37.5923 26.258 36.2461 26.309C36.1872 26.3113 36.1295 26.3102 36.0706 26.3113C35.5022 26.3192 35.32 27.0616 35.988 27.0525C36.9153 27.04 37.8426 27.0276 38.7699 27.0151C41.2981 26.9811 43.8253 26.9494 46.3536 26.9165C50.1409 26.8678 53.927 26.8213 57.7144 26.7748C62.3724 26.7182 67.0304 26.6638 71.6884 26.6105C76.8717 26.5516 82.0539 26.4949 87.2373 26.4416C92.6075 26.3861 97.9788 26.334 103.349 26.2875C108.506 26.2422 113.665 26.2014 118.822 26.1674C123.446 26.1368 128.069 26.113 132.693 26.0994C136.387 26.0892 140.083 26.0858 143.778 26.1039C145.172 26.1107 146.566 26.1209 147.961 26.139C148.533 26.147 149.106 26.1549 149.678 26.1662C149.92 26.1708 150.162 26.1764 150.404 26.1821C150.668 26.1889 150.806 26.1923 150.971 26.1968C151.33 26.2082 151.688 26.2195 152.046 26.2365C151.935 26.1254 151.825 26.0155 151.714 25.9044C151.2 29.6229 150.984 33.3686 151.092 37.121C151.272 36.9862 151.452 36.8513 151.632 36.7153C150.076 36.764 148.518 36.7754 146.963 36.7992C143.745 36.8468 140.528 36.8876 137.31 36.9272C132.865 36.9816 128.419 37.0326 123.974 37.0825C118.733 37.1403 113.493 37.1947 108.252 37.2468C102.648 37.3024 97.0458 37.3556 91.4424 37.4044C85.9103 37.4531 80.3771 37.4984 74.8439 37.5381C69.8145 37.5744 64.7852 37.6072 59.7558 37.631C55.6503 37.6503 51.5448 37.6662 47.4394 37.6662C44.7209 37.6662 42.0013 37.6662 39.2839 37.6254C38.8695 37.6197 38.454 37.6118 38.0396 37.6016C37.9999 37.6004 37.9603 37.5993 37.9218 37.5982C37.8629 37.597 38.0305 37.6016 37.8935 37.597C37.8109 37.5948 37.7293 37.5925 37.6467 37.5891C37.5176 37.5846 37.3897 37.58 37.2617 37.5732C37.1021 37.5653 36.9243 37.5279 36.7658 37.537C36.6401 37.5438 36.8134 37.571 36.8711 37.5914C37.0659 37.6605 36.8643 37.8407 36.9764 37.6106C37.076 37.4066 36.9481 36.9306 36.939 36.6972C36.9096 35.9741 36.8802 35.2499 36.8507 34.5268C36.7432 31.8998 36.6356 29.2727 36.528 26.6445C36.5065 26.122 35.5113 26.2648 35.5294 26.7182Z" fill="#4A5568"/>
<path d="M11.3257 146.446C22.151 144.659 33.128 145.31 44.0393 145.569C55.0593 145.831 66.085 145.899 77.1084 145.914C99.2899 145.947 121.469 145.671 143.651 145.607C156.06 145.571 168.469 145.603 180.877 145.79C181.209 145.794 181.936 145.304 181.277 145.293C159.004 144.958 136.728 145.127 114.455 145.276C92.3369 145.425 70.2165 145.559 48.1006 145.147C35.9031 144.92 23.5844 143.972 11.4797 145.97C11.0393 146.044 10.6407 146.559 11.3257 146.446Z" fill="#4A5568"/>
<path d="M74.4238 91.6095C74.4544 95.5354 74.6356 99.459 74.9662 103.37C75.2945 103.282 75.6229 103.194 75.9501 103.106C75.9275 102.868 75.9048 102.63 75.8822 102.392C75.8437 101.981 74.8564 102.211 74.8983 102.656C74.9209 102.894 74.9435 103.132 74.9662 103.37C75.0047 103.784 75.9875 103.549 75.9501 103.106C75.6252 99.2516 75.4474 95.3869 75.4168 91.5189C75.4134 91.0349 74.4204 91.2038 74.4238 91.6095Z" fill="#4A5568"/>
<path d="M81.0406 91.8521C81.4211 95.6737 81.4403 99.5225 81.1131 103.349C81.0667 103.885 82.0721 103.768 82.114 103.287C82.1275 103.13 82.1411 102.972 82.1547 102.815C82.2011 102.279 81.1958 102.394 81.1539 102.876C81.1403 103.034 81.1267 103.191 81.1131 103.349C81.4471 103.328 81.78 103.308 82.114 103.287C82.4479 99.3911 82.4128 95.4788 82.0245 91.588C81.977 91.103 80.9908 91.3478 81.0406 91.8521Z" fill="#4A5568"/>
<path d="M83.8237 96.3434C83.7285 98.4718 83.9233 101.729 86.4335 102.346C88.4353 102.837 90.7937 101.977 91.8908 100.213C92.9936 98.4378 93.2212 95.6203 92.2531 93.7424C91.2998 91.8928 89.2176 90.8796 87.2351 91.6424C85.3703 92.3609 83.9641 94.3601 83.8237 96.3434C83.7999 96.6879 84.7827 96.4873 84.803 96.2006C84.9049 94.7613 85.6828 93.2925 86.832 92.4164C88.339 91.2661 90.1257 92.2317 91.0643 93.6586C92.8895 96.4363 91.6282 102.497 87.4864 101.949C84.9321 101.61 84.7125 98.2349 84.8042 96.2006C84.8178 95.8515 83.8361 96.0601 83.8237 96.3434Z" fill="#4A5568"/>
<path d="M75.0443 97.8236C77.2058 97.7114 79.3672 97.5992 81.5287 97.4858C81.7392 97.4745 82.0574 97.4428 82.225 97.2988C82.3359 97.2036 82.4027 97.1016 82.1752 97.1141C80.0137 97.2263 77.8523 97.3385 75.6909 97.4518C75.4803 97.4632 75.1621 97.4949 74.9945 97.6388C74.8847 97.734 74.8168 97.836 75.0443 97.8236Z" fill="#4A5568"/>
<path d="M95.738 92.5798C95.7505 96.1589 95.7629 99.7368 95.7743 103.316C96.1026 103.276 96.4309 103.238 96.7604 103.198C96.7592 102.873 96.7581 102.549 96.757 102.223C96.7558 101.802 95.7697 102.005 95.7709 102.341C95.772 102.666 95.7731 102.991 95.7743 103.316C95.7754 103.737 96.7615 103.535 96.7604 103.198C96.7479 99.6189 96.7355 96.041 96.7242 92.4619C96.723 92.0403 95.7369 92.2432 95.738 92.5798Z" fill="#4A5568"/>
<path d="M92.287 92.1558C94.7915 92.2148 97.296 92.2748 99.8016 92.3338C99.9997 92.3383 100.364 92.2692 100.448 92.0538C100.528 91.8476 100.378 91.7252 100.17 91.7206C97.6651 91.6617 95.1606 91.6016 92.655 91.5427C92.4568 91.5382 92.0922 91.6073 92.0084 91.8226C91.9281 92.0289 92.0787 92.1513 92.287 92.1558Z" fill="#4A5568"/>
<path d="M109.574 91.6924C107.334 91.6482 105.095 91.5949 102.862 91.4C102.629 91.3796 102.066 91.4578 102.063 91.7763C102.014 95.259 101.964 98.7418 101.916 102.223C101.915 102.294 102.059 102.33 102.1 102.336C104.808 102.721 107.525 103.3 110.274 103.086C110.449 103.072 110.848 103.025 110.927 102.829C111.001 102.645 110.866 102.57 110.672 102.585C107.995 102.793 105.353 102.223 102.716 101.848C102.777 101.886 102.84 101.923 102.901 101.96C102.949 98.4777 102.999 94.9949 103.048 91.5133C102.782 91.6391 102.515 91.7638 102.249 91.8896C104.554 92.0913 106.866 92.1491 109.178 92.1956C109.511 92.2001 110.233 91.706 109.574 91.6924Z" fill="#4A5568"/>
<path d="M113.817 91.2276C114.253 94.9631 114.671 98.745 113.971 102.477C113.931 102.695 114.265 102.708 114.397 102.689C116.246 102.431 118.112 102.422 119.962 102.673C120.184 102.704 120.498 102.663 120.659 102.486C120.783 102.35 120.794 102.168 120.565 102.136C118.557 101.864 116.537 101.862 114.531 102.142C114.672 102.212 114.814 102.283 114.956 102.354C115.664 98.5784 115.243 94.7432 114.802 90.9635C114.764 90.6349 113.774 90.8547 113.817 91.2276Z" fill="#4A5568"/>
<path d="M102.765 97.6344C104.975 97.7953 107.187 97.7284 109.382 97.4134C109.935 97.334 110.125 96.5611 109.46 96.6563C107.352 96.9589 105.223 97.0416 103.098 96.8864C102.867 96.8694 102.551 96.9521 102.458 97.1946C102.375 97.4145 102.536 97.6185 102.765 97.6344Z" fill="#4A5568"/>
<g clip-path="url(#clip1)">
<path d="M66.2411 38.0895L10.0585 45.9387C7.86076 46.2464 5.83761 44.6699 5.53728 42.4184L1.98455 15.7438C1.68654 13.4923 3.22544 11.4197 5.4232 11.112L61.6058 3.26273C63.8035 2.95506 65.8267 4.53159 66.127 6.78309L69.6774 33.4577C69.9777 35.7092 68.4388 37.7818 66.2411 38.0895Z" fill="#FF85C0"/>
<path d="M62.8887 38.2328L11.0644 45.4739C8.86666 45.7816 6.84352 44.205 6.54319 41.9535L3.55619 19.5172C3.25586 17.2657 4.79476 15.1907 6.99252 14.8854L58.8168 7.64432C61.0146 7.33665 63.0377 8.91318 63.3381 11.1647L66.3251 33.601C66.6254 35.8525 65.0865 37.9251 62.8887 38.2328Z" fill="url(#paint5_linear)"/>
<path d="M66.2757 37.6597C62.1852 38.2321 58.0947 38.8022 54.0041 39.3746C45.8556 40.5123 37.7072 41.6523 29.5587 42.79C23.5242 43.6319 17.4897 44.4762 11.4551 45.3182C11.0198 45.3802 10.5821 45.4565 10.1444 45.5018C8.03975 45.7141 6.4054 44.2783 6.07015 42.1794C5.66505 39.6393 5.39033 37.0682 5.05042 34.5162C4.49633 30.3566 3.94223 26.1995 3.39046 22.0399C3.18093 20.4658 2.9714 18.8916 2.76187 17.3151C2.66408 16.5757 2.48947 15.7958 2.49879 15.0421C2.52207 13.1579 3.84445 11.7531 5.60918 11.4693C6.21915 11.3715 6.8361 11.2976 7.4484 11.2117C10.028 10.8516 12.6076 10.4914 15.1895 10.1313C23.1819 9.01505 31.1721 7.89884 39.1646 6.78263C45.7742 5.85961 52.3837 4.93658 58.9933 4.01356C60.7464 3.7679 62.7323 3.18117 64.2409 4.46911C65.3002 5.37305 65.5051 6.60613 65.6774 7.89645C65.859 9.26787 66.0429 10.6369 66.2245 12.0083C67.1651 19.0777 68.1895 26.1398 69.0485 33.2187C69.307 35.3486 68.3291 37.2948 66.1244 37.6931C65.412 37.8219 65.6285 38.5875 66.3246 38.4611C68.7901 38.0175 70.485 35.8518 70.2219 33.2783C70.1451 32.5247 70.0217 31.7734 69.9216 31.0221C69.4001 27.0963 68.8763 23.1728 68.3548 19.247C67.8612 15.5382 67.3676 11.827 66.8741 8.11826C66.7507 7.19524 66.6971 6.21498 66.3013 5.36351C65.4423 3.51031 63.5146 2.63022 61.5799 2.84726C56.7001 3.39345 51.8343 4.20914 46.9732 4.88888C38.4405 6.08142 29.9056 7.27395 21.373 8.46648C16.144 9.19631 10.9057 9.87367 5.68368 10.6584C4.29843 10.8659 3.03659 11.4502 2.19613 12.6475C1.358 13.8424 1.31144 15.1661 1.49536 16.5519C1.93771 19.879 2.38238 23.2062 2.82473 26.5334C3.37649 30.6858 3.93059 34.8406 4.48236 38.993C4.85486 41.7859 4.83391 45.187 8.05139 46.1792C9.53907 46.6371 11.3434 46.1482 12.8473 45.9383C15.825 45.5233 18.8004 45.1059 21.7781 44.6909C30.2339 43.5103 38.6897 42.3273 47.1454 41.1467C53.1753 40.3048 59.2075 39.4628 65.2374 38.6185C65.5493 38.5756 65.8613 38.5303 66.1733 38.4873C66.7833 38.3967 67.0417 37.5524 66.2757 37.6597Z" fill="#4A5568"/>
<path d="M11.7162 22.3292C12.7941 22.1622 13.751 22.2433 14.5891 22.5724C15.4272 22.9016 16.1047 23.4478 16.6239 24.211C17.1407 24.9742 17.483 25.9139 17.6459 27.0277C17.767 27.8506 17.767 28.6162 17.6506 29.3222C17.5319 30.0282 17.2921 30.6626 16.9289 31.2231C16.5657 31.7836 16.0884 32.2439 15.4924 32.6016C14.8987 32.9594 14.191 33.2027 13.3738 33.3291C12.5613 33.4531 11.814 33.4316 11.1318 33.2623C10.4497 33.093 9.85832 32.7972 9.35544 32.3751C8.85257 31.9529 8.44281 31.4139 8.12153 30.7604C7.80025 30.1069 7.5814 29.3818 7.465 28.5828C7.34393 27.7647 7.34859 26.9967 7.47897 26.2788C7.60701 25.5609 7.8538 24.9289 8.21931 24.3827C8.5825 23.8365 9.05977 23.3881 9.64646 23.0375C10.2332 22.6869 10.9223 22.4508 11.7162 22.3292ZM15.511 27.3426C15.397 26.5626 15.1735 25.9068 14.8452 25.3749C14.5146 24.8406 14.1002 24.4638 13.602 24.242C13.1037 24.0202 12.559 23.9534 11.9676 24.044C11.5462 24.1084 11.1714 24.2491 10.8385 24.4662C10.5055 24.6832 10.2332 24.967 10.0213 25.3153C9.80943 25.6659 9.66509 26.0928 9.58593 26.596C9.5091 27.1017 9.51376 27.6526 9.5999 28.2537C9.68837 28.8595 9.84435 29.3937 10.0632 29.8612C10.2844 30.3263 10.5544 30.7007 10.8734 30.9798C11.1923 31.2588 11.5392 31.452 11.9141 31.557C12.2889 31.6619 12.687 31.6834 13.1084 31.619C13.6462 31.5355 14.1211 31.3209 14.5332 30.975C14.943 30.6292 15.241 30.1474 15.4226 29.5321C15.6065 28.9143 15.6344 28.1845 15.511 27.3426Z" fill="white"/>
<path d="M26.7744 27.1446C26.8605 27.7361 26.8512 28.2942 26.7441 28.8189C26.637 29.346 26.4415 29.8135 26.1528 30.2237C25.8641 30.634 25.4986 30.9727 25.0539 31.235C24.6092 31.4998 24.0924 31.6763 23.501 31.7669C22.9144 31.8575 22.3742 31.8408 21.8783 31.7192C21.3824 31.5975 20.9354 31.3829 20.5397 31.0752C20.1439 30.7675 19.8226 30.3812 19.5712 29.9185C19.322 29.4558 19.1544 28.9239 19.066 28.33C18.9775 27.729 18.9868 27.1661 19.0939 26.6414C19.201 26.1143 19.3942 25.6492 19.6783 25.2437C19.9623 24.8383 20.3278 24.5044 20.7771 24.2396C21.2265 23.9749 21.7387 23.7984 22.316 23.7101C22.9027 23.6195 23.4475 23.6338 23.9527 23.7554C24.4579 23.8747 24.9072 24.0894 25.3007 24.3946C25.6942 24.6999 26.0154 25.0863 26.2645 25.5538C26.5183 26.0189 26.6859 26.5484 26.7744 27.1446ZM24.8327 27.4428C24.714 26.6342 24.4486 26.0308 24.0342 25.6349C23.6221 25.239 23.1216 25.0863 22.5349 25.1746C22.1577 25.2318 21.8388 25.3844 21.5803 25.6301C21.3219 25.8758 21.1426 26.2049 21.0449 26.6223C20.9471 27.0373 20.9354 27.5072 21.0123 28.0319C21.0891 28.5494 21.2311 28.9907 21.443 29.3532C21.6525 29.7157 21.9156 29.9805 22.2322 30.1403C22.5488 30.3025 22.9004 30.3525 23.2869 30.2929C23.8736 30.2023 24.3066 29.9041 24.586 29.3985C24.8677 28.8953 24.9491 28.2418 24.8327 27.4428Z" fill="white"/>
<path d="M35.5423 25.7923C35.6285 26.3838 35.6192 26.9419 35.5121 27.4666C35.405 27.9937 35.2094 28.4612 34.9207 28.8714C34.632 29.2816 34.2665 29.6203 33.8219 29.8827C33.3772 30.1474 32.8603 30.3239 32.269 30.4145C31.6823 30.5052 31.1422 30.4885 30.6463 30.3668C30.1504 30.2452 29.7034 30.0305 29.3076 29.7229C28.9118 29.4152 28.5905 29.0288 28.3391 28.5661C28.09 28.101 27.9224 27.5715 27.8339 26.9776C27.7454 26.3766 27.7547 25.8137 27.8618 25.2866C27.9689 24.7595 28.1622 24.2944 28.4462 23.889C28.7302 23.4835 29.0957 23.1496 29.5451 22.8849C29.9944 22.6201 30.5066 22.4436 31.084 22.3554C31.6707 22.2648 32.2154 22.2791 32.7206 22.4007C33.2259 22.52 33.6752 22.7346 34.0686 23.0399C34.4621 23.3452 34.7834 23.7316 35.0325 24.199C35.2863 24.6665 35.4539 25.1984 35.5423 25.7923ZM33.6007 26.0928C33.4819 25.2843 33.2165 24.6808 32.8021 24.2849C32.3901 23.889 31.8895 23.734 31.3028 23.8246C30.9257 23.8818 30.6067 24.0345 30.3483 24.2801C30.0899 24.5258 29.9106 24.8549 29.8128 25.2723C29.715 25.6873 29.7034 26.1572 29.7802 26.6795C29.857 27.1971 29.9991 27.6383 30.2109 28.0008C30.4205 28.3634 30.6835 28.6281 31.0002 28.7879C31.3168 28.9501 31.6683 29.0002 32.0548 28.9406C32.6415 28.8499 33.0745 28.5518 33.3539 28.0462C33.6356 27.5429 33.7171 26.8918 33.6007 26.0928Z" fill="white"/>
<path d="M38.4222 22.3653L38.4572 22.6038C38.7528 22.0886 39.0811 21.6927 39.442 21.4161C39.8028 21.1394 40.2312 20.9653 40.7271 20.889C41.3231 20.7983 41.8935 20.8699 42.4406 21.1084C42.9877 21.3469 43.451 21.7452 43.8305 22.3057C44.21 22.8662 44.4614 23.5602 44.5825 24.3879C44.671 24.9984 44.671 25.5708 44.5778 26.1075C44.4847 26.6441 44.3171 27.1068 44.075 27.498C43.8328 27.8891 43.5255 28.2087 43.153 28.4568C42.7805 28.7048 42.3661 28.8646 41.9075 28.9338C41.3534 29.0197 40.8738 28.9767 40.464 28.8074C40.0543 28.638 39.6468 28.359 39.2441 27.9702L39.6818 30.9468C39.8098 31.8173 39.563 32.3015 38.9461 32.3969C38.5829 32.4542 38.3245 32.3778 38.1731 32.1703C38.0218 31.9628 37.9147 31.6456 37.8519 31.2139L36.5947 22.6611C36.5388 22.2842 36.5784 21.9885 36.7111 21.7786C36.8438 21.5663 37.051 21.4399 37.3303 21.397C37.6051 21.354 37.8425 21.4161 38.0428 21.5806C38.243 21.7452 38.371 22.0052 38.4222 22.3653ZM42.6385 24.6621C42.5617 24.1398 42.4173 23.7033 42.2078 23.3503C41.9959 22.9997 41.7375 22.7445 41.4325 22.5871C41.1275 22.4297 40.8063 22.3749 40.471 22.4273C39.9379 22.5084 39.5188 22.7946 39.2161 23.2812C38.9135 23.7677 38.8227 24.4308 38.9461 25.2679C39.0625 26.0574 39.3349 26.6417 39.7632 27.0234C40.1916 27.405 40.6736 27.5552 41.2137 27.4717C41.535 27.4217 41.819 27.2809 42.0658 27.0472C42.3126 26.8135 42.4895 26.4939 42.5989 26.086C42.7037 25.6782 42.7177 25.2035 42.6385 24.6621Z" fill="white"/>
<path d="M52.5796 24.638C52.6611 25.1841 52.5983 25.6731 52.3957 26.1024C52.1932 26.5317 51.8533 26.8871 51.3737 27.1661C50.8964 27.4452 50.2911 27.6408 49.5647 27.7529C48.8709 27.8602 48.2586 27.8435 47.7301 27.7028C47.2016 27.5621 46.7965 27.345 46.5125 27.054C46.2285 26.7631 46.0609 26.453 46.0143 26.1239C45.9817 25.9068 46.0306 25.7089 46.1586 25.53C46.2867 25.3511 46.4659 25.2438 46.6988 25.208C46.9013 25.177 47.0643 25.2032 47.19 25.2891C47.3134 25.3749 47.4391 25.5014 47.5648 25.6683C47.8163 25.9903 48.091 26.2193 48.3936 26.3504C48.6963 26.4816 49.0851 26.5102 49.5624 26.4387C49.9488 26.3791 50.2538 26.2407 50.4773 26.0261C50.6985 25.8114 50.794 25.5896 50.7614 25.363C50.7101 25.0148 50.5448 24.7811 50.2631 24.6594C49.9814 24.5402 49.5368 24.4519 48.9245 24.3971C48.233 24.3303 47.6649 24.2349 47.2203 24.1132C46.7756 23.9916 46.4031 23.796 46.1097 23.5313C45.8141 23.2642 45.6348 22.9088 45.5696 22.4628C45.5114 22.0669 45.5719 21.6733 45.7512 21.2846C45.9305 20.8958 46.2308 20.5619 46.6522 20.2804C47.0713 20.0014 47.6021 19.8106 48.24 19.7128C48.7405 19.6365 49.1992 19.6198 49.6136 19.6651C50.028 19.7104 50.3819 19.801 50.6752 19.9394C50.9686 20.0777 51.2014 20.2447 51.3713 20.4402C51.5436 20.6358 51.6437 20.8385 51.674 21.046C51.7066 21.2726 51.66 21.4706 51.532 21.6399C51.4039 21.8069 51.2037 21.9142 50.929 21.9548C50.7311 21.9858 50.5518 21.9524 50.3958 21.8594C50.2399 21.764 50.0536 21.6161 49.8394 21.411C49.6648 21.2392 49.4692 21.1128 49.2527 21.027C49.0362 20.9411 48.7592 20.9244 48.4193 20.9769C48.07 21.0317 47.7907 21.151 47.5811 21.3394C47.3716 21.5278 47.2831 21.7353 47.318 21.9619C47.3483 22.1694 47.4601 22.3268 47.6486 22.4342C47.8372 22.5415 48.084 22.6154 48.3843 22.6584C48.6847 22.7013 49.0967 22.7466 49.6229 22.7943C50.2445 22.8515 50.7614 22.9565 51.1734 23.1044C51.5832 23.2546 51.9091 23.455 52.1466 23.7078C52.3794 23.9654 52.5261 24.273 52.5796 24.638Z" fill="white"/>
<path d="M55.1568 26.8892C54.8634 26.9345 54.5957 26.8773 54.3559 26.7151C54.1138 26.5553 53.9694 26.3001 53.9182 25.9519C53.874 25.6561 53.9392 25.3866 54.1115 25.1433C54.2837 24.9001 54.5189 24.7546 54.8146 24.7069C55.1126 24.6616 55.3826 24.7259 55.6224 24.9048C55.8646 25.0837 56.0066 25.3222 56.0508 25.6227C56.102 25.9662 56.0368 26.2524 55.8552 26.4814C55.6713 26.7103 55.4408 26.8463 55.1568 26.8892Z" fill="white"/>
<path d="M59.699 26.1907C59.4056 26.236 59.1379 26.1788 58.8981 26.0166C58.656 25.8568 58.5116 25.6016 58.4604 25.2534C58.4162 24.9576 58.4813 24.6881 58.6536 24.4449C58.8259 24.2016 59.0611 24.0561 59.3567 24.0084C59.6547 23.9631 59.9248 24.0275 60.1646 24.2063C60.4067 24.3852 60.5487 24.6237 60.593 24.9243C60.6442 25.2677 60.5767 25.5539 60.3974 25.7829C60.2158 26.0118 59.983 26.1478 59.699 26.1907Z" fill="white"/>
<path d="M64.2435 25.4895C63.9502 25.5349 63.6824 25.4776 63.4426 25.3154C63.2005 25.1556 63.0562 24.9004 63.0049 24.5522C62.9607 24.2565 63.0259 23.987 63.1982 23.7437C63.3705 23.5004 63.6056 23.3549 63.9036 23.3072C64.2016 23.2619 64.4717 23.3263 64.7115 23.5052C64.9536 23.684 65.0956 23.9226 65.1399 24.2231C65.1911 24.5665 65.1259 24.8527 64.9443 25.0817C64.758 25.3107 64.5252 25.4466 64.2435 25.4895Z" fill="white"/>
</g>
</g>
<defs>
<linearGradient id="paint0_linear" x1="74.1577" y1="44.2195" x2="74.1577" y2="81.0672" gradientUnits="userSpaceOnUse">
<stop stop-color="#FEA6D0"/>
<stop offset="1" stop-color="#FF7EBC"/>
</linearGradient>
<linearGradient id="paint1_linear" x1="117.032" y1="43.7383" x2="117.032" y2="80.8294" gradientUnits="userSpaceOnUse">
<stop stop-color="#FEA6D0"/>
<stop offset="1" stop-color="#FF7EBC"/>
</linearGradient>
<linearGradient id="paint2_linear" x1="41.3367" y1="54.1221" x2="41.3367" y2="112.644" gradientUnits="userSpaceOnUse">
<stop stop-color="#00B6F3"/>
<stop offset="1" stop-color="#008DF3"/>
</linearGradient>
<linearGradient id="paint3_linear" x1="150.602" y1="128.458" x2="150.602" y2="145.58" gradientUnits="userSpaceOnUse">
<stop stop-color="#00B6F3"/>
<stop offset="1" stop-color="#008DF3"/>
</linearGradient>
<linearGradient id="paint4_linear" x1="43.6157" y1="128.412" x2="43.6157" y2="145.63" gradientUnits="userSpaceOnUse">
<stop stop-color="#00B6F3"/>
<stop offset="1" stop-color="#008DF3"/>
</linearGradient>
<linearGradient id="paint5_linear" x1="34.9406" y1="7.60596" x2="34.9406" y2="45.5122" gradientUnits="userSpaceOnUse">
<stop stop-color="#FEA6D0"/>
<stop offset="1" stop-color="#FF7EBC"/>
</linearGradient>
<clipPath id="clip0">
<rect width="192.479" height="170" fill="white"/>
</clipPath>
<clipPath id="clip1">
<rect width="68.843" height="43.5537" fill="white" transform="translate(1.40497 2.80981)"/>
</clipPath>
</defs>
</svg>
